<?xml version="1.0" encoding="utf-8"?>
<!-- Generator: Adobe Illustrator 18.1.1, SVG Export Plug-In . SVG Version: 6.00 Build 0)  -->
<svg version="1.1" id="Warstwa_1" xmlns="http://www.w3.org/2000/svg" xmlns:xlink="http://www.w3.org/1999/xlink" x="0px" y="0px"
	 viewBox="0 0 170.1 141.7" enable-background="new 0 0 170.1 141.7" xml:space="preserve">
<g>
	<path fill="#BE9F63" d="M80.1,130.2c-1.1-4.6-2.5-11.6-3.9-21.1c0.2,9.2,0.5,16.3,0.9,21.2C78.4,130.2,79.4,130.2,80.1,130.2z"/>
	<path fill="#BE9F63" d="M7.5,125.7c-2.6,2.5-4.5,4.4-5.5,5.6v4h54.5c8.2,0,15,0.1,20.4,0.2c-5.7-1-13.5-2.1-23.4-3.5L7.5,125.7z"/>
	<path fill="#BE9F63" d="M52.9,64.8c1.8-13.4-3.5-20.9-15.9-22.6c-7.1-1-13.7,1-19.7,6c3-1.3,6.2-2,9.6-2c12.5,0,18.8,6.8,18.8,20.3
		c0,9.3-2.6,18.2-7.9,26.7c-0.8,1.2-1.6,2.4-2.4,3.7c2.2-2.2,4.2-4.4,6.1-6.7C47.8,82.5,51.6,74,52.9,64.8z"/>
</g>
<path fill="#231F20" d="M113.7,61.8c-1.1,0.8-2.1,1.7-3.1,2.7c0,0.1-0.1,0.2-0.1,0.3C111.5,63.6,112.6,62.7,113.7,61.8z"/>
<path fill="#231F20" d="M108.1,71.8c1.8-2.9,4.1-5.1,6.9-6.8c4.3-2.6,8.7-3.9,13.1-3.9c6,0,10.9,3,14.7,8.9
	c2.3,3.7,3.9,8.7,4.8,14.9c0.3-4.5-0.1-8.3-1.1-11.5c-2-6.7-6-10.8-11.8-12.4c-4.2-1.2-8.8-1.1-13.6,0.3c-4.8,1.4-9,4.5-12.5,9.4
	C108.4,71,108.2,71.4,108.1,71.8z"/>
<path fill="#231F20" d="M108.3,116.6c-2.1-7.4-3.2-17.3-3.2-29.7c0-1.8,0-3.5,0.1-5.2c-2.9,11.1-4.3,20.3-4.3,27.6
	c0.1,7.7,1.3,13.5,3.7,17.3c2.4,3.8,5.4,6.2,9.1,7.2c1.7,0.5,3.4,0.6,5.2,0.5c-0.9-0.6-1.7-1.2-2.6-2
	C113.1,129.3,110.4,124,108.3,116.6z"/>
<g>
	<path fill="#BE9F63" d="M140.5,57c5.8,1.6,10.7,4.6,14.9,9.1c4.1,4.5,6.9,10.1,8.3,16.9c1.4,6.8,1,14.2-1.3,22.4
		c-2.4,8.8-6.3,15.9-11.6,21.3c-5.3,5.5-11.5,9-18.4,10.7c-7,1.7-14.1,1.5-21.5-0.5c-1.8-0.5-3.4-1-5-1.7c5.5,3.6,11.9,5.4,19.2,5.4
		c7.6,0,14.6-1.7,20.8-5.2c6.3-3.5,11.2-8.5,14.9-15.2c3.7-6.7,5.5-14.5,5.5-23.6c0-8.4-1.6-15.7-4.7-21.9
		c-3.1-6.2-7.3-10.9-12.4-14.1c-5.2-3.2-10.7-4.9-16.7-4.9c-1.9,0-3.8,0.2-5.7,0.5C131.8,55.6,136.3,55.8,140.5,57z"/>
	<path fill="#BE9F63" d="M109.5,35c4.3-4.4,8.7-8.2,13.2-11.4c2.5-3,5.2-5.5,8-7.5c6.1-4.3,12.9-7.7,20.6-10.1l-0.7-3.8
		c-9.7,1.9-19.4,6.1-29.1,12.6c-9.7,6.5-17.9,15.8-24.5,28c-5.6,10.1-8.8,22.1-9.7,36c0.3-1.1,0.6-2.2,0.9-3.4
		C92.7,58.5,99.8,45,109.5,35z"/>
</g>
<radialGradient id="SVGID_1_" cx="25.384" cy="126.3395" r="45.3572" gradientTransform="matrix(0.9873 -0.1586 0.1586 0.9873 -10.477 -33.0226)" gradientUnits="userSpaceOnUse">
	<stop  offset="0" style="stop-color:#FFFFFF"/>
	<stop  offset="1" style="stop-color:#1D2D5A"/>
</radialGradient>
<path fill="url(#SVGID_1_)" d="M38.5,34.6c-9.3,0.2-16.9,2.6-22.8,7.1c-1.2,0.9-2.3,1.9-3.4,2.9C7.9,48.7,4.5,53.4,2,59l1.2,0.6
	l1.9,1c1.9-3.6,3.9-6.6,6.2-9.1c5.2-5.9,11.4-8.9,18.5-9.1C42.3,42,48.7,48.6,49,62.1c0.2,9.3-2.2,18.3-7.2,26.8
	c-1.5,2.5-3.1,5-4.9,7.5c-4.4,6.1-9.7,12.2-16,18.4c-8.9,8.7-14.4,14.3-16.4,16.6l0.1,3.2l6.6-0.2l37.4-0.9c8-0.2,14.4-0.3,19.1-0.2
	c4.5,0,7.5,0.2,8.9,0.5c-0.1-0.5-0.1-1-0.2-1.5c-0.5-4.5-0.8-10.9-1.1-19.3c0-1.3-0.1-2.7-0.1-4.1l-0.6,0l-2.6,0.1
	c-0.2,2.6-0.7,4.6-1.3,5.9c-0.5,0.9-1.2,1.7-2.1,2.3c-0.4,0.2-0.8,0.4-1.3,0.6c-1.6,0.6-4.2,1-7.6,1.1l-33.1,0.8l-4.1,0.1l-0.9,0
	c1.3-1.9,3.3-4.2,5.9-7c3.1-3.4,7.2-7.4,12.2-12.1c1.9-1.8,3.7-3.5,5.4-5.2c6.5-6.5,11.6-12.2,15.4-17.3c4.7-6.3,7-13.2,6.8-20.6
	c-0.2-7.5-2.8-13.3-7.9-17.3C54.1,36.3,47.2,34.4,38.5,34.6z"/>
<radialGradient id="SVGID_2_" cx="117.0739" cy="110.4302" r="54.9412" gradientTransform="matrix(0.984 -0.1782 0.1782 0.984 -6.6157 -13.598)" gradientUnits="userSpaceOnUse">
	<stop  offset="0" style="stop-color:#FFFFFF"/>
	<stop  offset="1" style="stop-color:#1D2D5A"/>
</radialGradient>
<path fill="url(#SVGID_2_)" d="M138.8,15.4c6.4-3.8,13.6-6.5,21.4-8.3l-0.4-3.8c-9.8,1-19.9,4.4-30.1,10c-5.7,3.1-11,7.2-15.9,12.1
	c-3.9,4-7.6,8.5-11,13.6C95.1,50.5,90.5,65,89,82.5c-0.1,1.2-0.2,2.3-0.3,3.5c-0.6,9.7,0.2,18.2,2.3,25.6
	c2.3,8.2,6.2,14.7,11.5,19.4c4.1,3.6,9,6,14.6,7.2c1.7,0.4,3.4,0.6,5.2,0.8c7.6,0.7,14.7-0.4,21.2-3.3c6.5-2.9,11.9-7.5,16.2-13.8
	c4.3-6.3,6.8-14,7.6-23.1c0.7-8.4-0.2-15.8-2.7-22.2c-2.6-6.4-6.3-11.5-11.1-15.1c-4.9-3.7-10.3-5.8-16.2-6.3
	c-4.4-0.4-8.8,0.2-13.4,1.7c-0.7,0.2-1.3,0.5-2,0.7c-3.9,1.5-7.3,3.9-10.1,7.1c-0.9,1.1-1.8,2.3-2.6,3.5c0-0.1,0-0.2,0.1-0.3
	c2.5-14.2,6.5-25.5,11.9-34C126.4,25.3,132.3,19.2,138.8,15.4z M118.8,62.8c4.5-2.2,9-3.1,13.3-2.7c6,0.5,10.6,3.9,13.8,10.1
	c1.5,3,2.6,6.7,3.1,11.2c0.6,4.8,0.6,10.6,0,17.2c-0.8,8.9-2.4,16.1-4.8,21.8c-2.4,5.6-5.3,9.6-8.7,12c-1.8,1.3-3.8,2.2-5.8,2.7
	c-1.7,0.4-3.4,0.5-5.2,0.4c-3.8-0.3-7.3-2.2-10.3-5.5c-3-3.3-5.3-8.7-6.7-16.3c-1.4-7.2-1.6-16.5-0.7-27.9c0.1-0.7,0.1-1.3,0.2-2
	c0.3-2.9,0.6-5.6,0.9-8.3c0.1-0.4,0.1-0.8,0.2-1.2C110.7,68.8,114.3,65,118.8,62.8z"/>
</svg>
